<svg width="40" height="334" viewBox="0 0 40 334" fill="none" xmlns="http://www.w3.org/2000/svg">
<rect x="12.5" y="83.5" width="15" height="15" stroke="#524336"/>
<rect x="15" y="86" width="10" height="10" fill="#BB8C5F"/>
<rect x="12.5" y="114.5" width="15" height="15" stroke="#524336"/>
<rect x="12.5" y="145.5" width="15" height="15" stroke="#524336"/>
<rect x="12.5" y="176.5" width="15" height="15" stroke="#524336"/>
<rect x="12.5" y="207.5" width="15" height="15" stroke="#524336"/>
<rect x="0.75" y="0.75" width="38.5" height="38.5" transform="matrix(4.37114e-08 1 1 -4.37114e-08 3.27835e-08 243)" stroke="#BB8C5F" stroke-width="1.5"/>
<path d="M20 333.33L15.6699 329L20 324.67L24.3301 329L20 333.33ZM20.75 265L20.75 329L19.25 329L19.25 265L20.75 265Z" fill="#BB8C5F"/>
<rect x="0.75" y="62.25" width="38.5" height="38.5" transform="rotate(-90 0.75 62.25)" stroke="#BB8C5F" stroke-width="1.5"/>
<path d="M20 0.669872L15.6699 5L20 9.33013L24.3301 5L20 0.669872ZM20.75 41L20.75 5L19.25 5L19.25 41L20.75 41Z" fill="#BB8C5F"/>
</svg>
